# xmcd
#
# Track frame offsets: 
#        150
#        6115
#        25738
#        46390
#        65497
#        83271
#        98631
#        117795
#        133230
#        149852
#        169161
#        185109
#        204177
#        218067
#        233314
#        253661
#        271693
#        290441
#
# Disc length: 4157 seconds
#
# Revision: 0
# Processed by: cddbd v1.5.2PL0 Copyright (c) Steve Scherf et al.
# Submitted via: ExactAudioCopyFreeDBPlugin 1.0
#
DISCID=f7103b12
DTITLE=R. Kelly - The Buffet (Deluxe Edition)
DYEAR=2015
DGENRE=R&B
TTITLE0=The Poem
TTITLE1=Poetic Sex
TTITLE2=Anything Goes (feat. Ty Dolla $ign)
TTITLE3=Let's Make Some Noise (feat. Jhené Aiko)
TTITLE4=Marching Band (feat. Juicy J)
TTITLE5=Switch Up (feat. Lil Wayne and Jeremih)
TTITLE6=Wanna Be There (feat. Ariirayé)
TTITLE7=All My Fault
TTITLE8=Wake Up Everybody
TTITLE9=Get Out of Here with Me
TTITLE10=Backyard Party
TTITLE11=Sextime
TTITLE12=Let's Be Real Now (feat. Tinashe)
TTITLE13=I Just Want to Thank You (feat. Wizkid)
TTITLE14=Keep Searchin'
TTITLE15=Sufferin'
TTITLE16=I Tried
TTITLE17=Barely Breathin'
EXTD=
EXTT0=
EXTT1=
EXTT2=
EXTT3=
EXTT4=
EXTT5=
EXTT6=
EXTT7=
EXTT8=
EXTT9=
EXTT10=
EXTT11=
EXTT12=
EXTT13=
EXTT14=
EXTT15=
EXTT16=
EXTT17=
PLAYORDER=
